<svg width="40" height="40" viewBox="0 0 40 40" fill="none" xmlns="http://www.w3.org/2000/svg">
<path d="M39 9.94118V1H30.0588V4.35294H22.2353V18.8824H14.0282C13.4776 17.3299 12.3707 16.0387 10.9482 15.2495C11.7085 14.4477 12.1765 13.366 12.1765 12.1765C12.1765 9.71139 10.171 7.70588 7.70588 7.70588C5.2408 7.70588 3.23529 9.71139 3.23529 12.1765C3.23529 13.366 3.70322 14.4477 4.46351 15.2495C2.40004 16.3942 1 18.5953 1 21.1176V25.5882H14.4118V21.1176H22.2353V35.6471H30.0588V39H39V30.0588H30.0588V33.4118H24.4706V21.1176H30.0588V24.4706H39V15.5294H30.0588V18.8824H24.4706V6.58824H30.0588V9.94118H39ZM5.47059 12.1765C5.47059 10.9439 6.47334 9.94118 7.70588 9.94118C8.93842 9.94118 9.94118 10.9439 9.94118 12.1765C9.94118 13.409 8.93842 14.4118 7.70588 14.4118C6.47334 14.4118 5.47059 13.409 5.47059 12.1765ZM12.1765 23.3529H3.23529V21.1176C3.23529 18.6526 5.2408 16.6471 7.70588 16.6471C10.171 16.6471 12.1765 18.6526 12.1765 21.1176V23.3529ZM32.2941 32.2941H36.7647V36.7647H32.2941V32.2941ZM32.2941 17.7647H36.7647V22.2353H32.2941V17.7647ZM32.2941 3.23529H36.7647V7.70588H32.2941V3.23529Z" fill="#E95522"/>
</svg>
