<svg width="262" height="196" viewBox="0 0 262 196" fill="none" xmlns="http://www.w3.org/2000/svg">
<g clip-path="url(#clip0)">
<path fill-rule="evenodd" clip-rule="evenodd" d="M187.141 65.0916H224.565V32.5458L187.141 48.4751V65.0916Z" fill="#E95522"/>
<path fill-rule="evenodd" clip-rule="evenodd" d="M112.282 65.0916H149.706V32.5458L112.282 48.4751V65.0916Z" fill="#E95522"/>
<path fill-rule="evenodd" clip-rule="evenodd" d="M74.8589 97.6488H112.283V65.0917L74.8589 81.021V97.6488Z" fill="#E95522"/>
<path fill-rule="evenodd" clip-rule="evenodd" d="M149.718 97.6488H187.141V65.0917L149.718 81.021V97.6488Z" fill="#E95522"/>
<path fill-rule="evenodd" clip-rule="evenodd" d="M37.4351 130.217H74.8701V97.6599L37.4351 113.589V130.217Z" fill="#E95522"/>
<path fill-rule="evenodd" clip-rule="evenodd" d="M224.576 32.5571H262V0L224.576 15.9293V32.5571Z" fill="#E95522"/>
<path fill-rule="evenodd" clip-rule="evenodd" d="M187.141 130.172H224.565V97.6149L187.141 113.555V130.172Z" fill="#E95522"/>
<path fill-rule="evenodd" clip-rule="evenodd" d="M112.282 130.172H149.706V97.6149L112.282 113.555V130.172Z" fill="#E95522"/>
<path fill-rule="evenodd" clip-rule="evenodd" d="M0 162.718H37.4237V130.172L0 146.101V162.718Z" fill="#E95522"/>
<path fill-rule="evenodd" clip-rule="evenodd" d="M74.8589 162.718H112.283V130.172L74.8589 146.101V162.718Z" fill="#E95522"/>
<path fill-rule="evenodd" clip-rule="evenodd" d="M149.718 162.718H187.141V130.172L149.718 146.101V162.718Z" fill="#E95522"/>
<path fill-rule="evenodd" clip-rule="evenodd" d="M37.4351 195.297H74.8701V162.74L37.4351 178.67V195.297Z" fill="#E95522"/>
<path fill-rule="evenodd" clip-rule="evenodd" d="M224.576 97.6261H262V65.0803L224.576 81.0096V97.6261Z" fill="#E95522"/>
</g>
<defs>
<clipPath id="clip0">
<rect width="262" height="195.297" fill="white"/>
</clipPath>
</defs>
</svg>
