<svg width="50" height="48" viewBox="0 0 50 48" fill="none" xmlns="http://www.w3.org/2000/svg">
<path d="M32.9989 14.7201L41.0764 6.62548M45.6921 2L41.0764 6.62548L45.6921 2ZM23.5136 24.2254C24.7053 25.4037 25.6526 26.8065 26.301 28.3532C26.9494 29.8998 27.2861 31.5597 27.2917 33.2373C27.2973 34.9149 26.9717 36.577 26.3336 38.128C25.6956 39.679 24.7577 41.0881 23.574 42.2744C22.3902 43.4606 20.9841 44.4005 19.4364 45.0399C17.8887 45.6793 16.23 46.0055 14.556 45.9999C12.882 45.9943 11.2256 45.6569 9.68218 45.0071C8.13879 44.3574 6.73891 43.4081 5.56313 42.2139C3.25096 39.8149 1.97156 36.6018 2.00048 33.2666C2.0294 29.9314 3.36433 26.7411 5.71776 24.3827C8.07118 22.0243 11.2548 20.6865 14.5829 20.6575C17.911 20.6286 21.1174 21.9107 23.5113 24.2277L23.5136 24.2254ZM23.5136 24.2254L32.9989 14.7201L23.5136 24.2254ZM32.9989 14.7201L39.9225 21.6583L48 13.5637L41.0764 6.62548L32.9989 14.7201Z" stroke="#E95522" stroke-width="3" stroke-linecap="round" stroke-linejoin="round"/>
</svg>
