<svg width="138" height="50" viewBox="0 0 138 50" fill="none" xmlns="http://www.w3.org/2000/svg">
<g clip-path="url(#clip0)">
<path d="M8.2242 33.7594C8.05463 33.5902 7.86964 33.4363 7.66924 33.3055C7.46883 33.1747 7.25302 33.0593 7.02949 32.9593C6.80597 32.867 6.57473 32.79 6.32808 32.7439C6.08143 32.6977 5.83479 32.6746 5.57272 32.6746C5.06401 32.6746 4.59383 32.7593 4.1622 32.9285C3.94638 33.0132 3.74598 33.1132 3.55328 33.2363C3.3683 33.3517 3.19102 33.4902 3.03686 33.644C2.88271 33.7979 2.73626 33.9671 2.61294 34.1441C2.48961 34.3287 2.3817 34.5211 2.28921 34.7365C2.19672 34.9365 2.13505 35.1596 2.08881 35.3904C2.04256 35.6212 2.01944 35.8674 2.01944 36.1213C2.01944 36.3598 2.04256 36.5906 2.08881 36.8137C2.13505 37.0368 2.21213 37.2446 2.30462 37.4523C2.39712 37.6523 2.51273 37.8447 2.64377 38.0293C2.7748 38.2063 2.92125 38.3678 3.08311 38.514C3.25268 38.6602 3.42996 38.7987 3.61495 38.9141C3.80764 39.0295 4.01575 39.1372 4.22386 39.2218C4.43968 39.3064 4.6632 39.368 4.87902 39.4141C5.10255 39.4526 5.34149 39.4757 5.58043 39.4757C5.88103 39.4757 6.16622 39.4449 6.42828 39.3834C6.69806 39.3218 6.95241 39.2295 7.19906 39.1064C7.44571 38.9833 7.67694 38.8294 7.88505 38.6602C8.09316 38.4909 8.27815 38.2986 8.45543 38.0755L8.70208 37.76L9.96615 39.4757L9.79658 39.6603C9.53452 39.9527 9.24162 40.2143 8.93331 40.4374C8.61729 40.6682 8.27815 40.8605 7.91589 41.0298C7.18365 41.3606 6.40516 41.5298 5.56501 41.5298C4.77882 41.5298 4.04658 41.3837 3.3683 41.099C3.04457 40.9451 2.72855 40.7759 2.42795 40.5758C2.13505 40.3835 1.85757 40.1527 1.61092 39.9065C1.35657 39.6526 1.13304 39.3834 0.940349 39.0833C0.747654 38.791 0.578083 38.4755 0.431635 38.1293C0.285188 37.7831 0.177279 37.4292 0.107909 37.0753C0.0385389 36.7214 0 36.3444 0 35.9598C0 35.5828 0.0385389 35.2135 0.115617 34.8596C0.192694 34.5057 0.308311 34.1595 0.454759 33.8364C0.755362 33.1824 1.16387 32.6208 1.6803 32.1438C1.93465 31.9053 2.21984 31.6899 2.51273 31.5052C2.80563 31.3206 3.12936 31.159 3.46079 31.0282C4.13908 30.759 4.84819 30.6282 5.58043 30.6282C5.97353 30.6282 6.35121 30.6666 6.72118 30.7359C7.09115 30.8051 7.44571 30.9205 7.78485 31.0667C8.124 31.2129 8.44001 31.3821 8.74062 31.5822C9.04122 31.7822 9.3187 32.013 9.57306 32.2669L9.77346 32.4669L8.45543 34.0056L8.2242 33.7594ZM16.7798 41.299H15.0379V30.9051H17.0804L17.065 34.7827C17.1498 34.7596 17.2346 34.7365 17.3194 34.7211C17.435 34.698 17.5506 34.6826 17.6662 34.6749C17.7895 34.6673 17.9052 34.6596 18.0131 34.6596C18.1595 34.6596 18.3753 34.6749 18.6605 34.7057C19.254 34.775 19.8552 34.8442 20.4487 34.9058L20.8649 34.9365C20.9806 34.9442 21.0962 34.9442 21.2118 34.9442C21.3043 34.9442 21.4045 34.9365 21.5047 34.9288C21.6049 34.9211 21.7128 34.9058 21.8284 34.8904C21.9363 34.875 22.0365 34.8519 22.129 34.8211L22.2369 34.7904V30.8975H24.2795V41.2913H22.2369V36.8676C22.1367 36.8984 22.0288 36.9138 21.9209 36.9368C21.7976 36.9522 21.6743 36.9676 21.5586 36.9753C21.4353 36.983 21.3274 36.9907 21.2195 36.9907C21.1193 36.9907 20.9883 36.983 20.8418 36.9753C20.7031 36.9676 20.5566 36.9522 20.4025 36.9368C19.8013 36.8753 19.2078 36.806 18.6143 36.7368L18.2751 36.706L18.0439 36.6983C17.8512 36.6983 17.6585 36.7137 17.4735 36.7522C17.381 36.7676 17.2885 36.7907 17.2038 36.8214L17.1113 36.8522V41.2836H16.7798V41.299ZM32.257 39.2449H38.2999V41.299H30.2145V30.9051H37.7219V32.9593H32.257V35.1443L32.3033 35.1289C32.4729 35.0673 32.6424 35.0288 32.8197 35.0058C32.9816 34.9827 33.1434 34.9673 33.3053 34.9596C33.4749 34.9519 33.6444 34.9442 33.8063 34.9442H36.2574V36.9984H33.8063C33.6521 36.9984 33.5057 37.0061 33.3592 37.0138C33.2051 37.0292 33.0586 37.0445 32.9122 37.0676C32.6887 37.0984 32.4729 37.1676 32.257 37.26V39.2449ZM45.6994 35.3981L45.7379 35.3828C45.9075 35.3212 46.0848 35.275 46.2621 35.2597C46.4239 35.2366 46.5858 35.2212 46.7477 35.2135C46.9172 35.2058 47.0868 35.1981 47.2487 35.1981H49.1139C49.3375 35.1981 49.5302 35.175 49.7074 35.1212C49.8693 35.075 50.0158 34.9981 50.1391 34.9058C50.247 34.8211 50.3318 34.7134 50.3857 34.5749C50.4474 34.4211 50.4782 34.2364 50.4782 34.021C50.4782 33.9133 50.4705 33.8133 50.4551 33.7363C50.4397 33.6594 50.4166 33.5902 50.3857 33.5209C50.3549 33.4517 50.3164 33.3978 50.2701 33.344C50.2316 33.2978 50.1853 33.2517 50.1314 33.2132C50.0774 33.1747 50.008 33.1363 49.9464 33.1055C49.877 33.0747 49.7999 33.0516 49.7151 33.0285C49.6304 33.0055 49.5379 32.9901 49.4377 32.9824C49.3375 32.9747 49.2373 32.967 49.1294 32.967H45.7225V35.3981H45.6994ZM48.1967 37.2446H47.2487C47.0945 37.2446 46.9404 37.2523 46.8016 37.26C46.6475 37.2753 46.501 37.2907 46.3546 37.3138C46.2158 37.3369 46.0771 37.3677 45.9383 37.4138C45.8613 37.4369 45.7765 37.4754 45.6994 37.5061V41.2913H43.6568V30.9051H49.1217C49.5995 30.9051 50.0466 30.9744 50.4551 31.1129C50.8713 31.2513 51.2336 31.4591 51.5419 31.7283C51.696 31.8668 51.8348 32.0207 51.9581 32.19C52.0814 32.3592 52.1816 32.5439 52.2664 32.7439C52.3512 32.9439 52.4129 33.1593 52.4591 33.3824C52.4977 33.6056 52.5208 33.8441 52.5208 34.0902C52.5208 34.4903 52.4668 34.8596 52.3512 35.1981C52.2356 35.5366 52.066 35.8444 51.8425 36.1136C51.619 36.3752 51.3492 36.5983 51.0409 36.7753C50.8328 36.8907 50.6092 36.9907 50.3703 37.0753L50.9638 38.2909L51.1642 38.5755L51.3415 38.8063C51.3954 38.8679 51.4417 38.9217 51.4879 38.9756C51.5342 39.0218 51.5804 39.0679 51.619 39.0987C51.6575 39.1295 51.696 39.1526 51.7346 39.1679C51.7731 39.1833 51.804 39.1987 51.8425 39.2141C51.881 39.2218 51.935 39.2372 51.9889 39.2372C52.0429 39.2449 52.1046 39.2449 52.1739 39.2449L52.937 39.2218V41.299L52.1971 41.2913L51.7654 41.2683C51.6113 41.2606 51.4494 41.2375 51.303 41.2067C51.1488 41.1759 51.0023 41.1298 50.8559 41.0836C50.7017 41.0298 50.5553 40.9528 50.4166 40.8682C50.2778 40.7836 50.1391 40.6836 50.008 40.5682C49.877 40.4451 49.746 40.3066 49.6227 40.1373C49.507 39.9758 49.3991 39.7911 49.2989 39.5834L48.1967 37.2446ZM57.8083 30.9051H59.8046L65.6471 37.8447V30.9051H67.6897V41.299H65.8244L60.6602 35.1135V41.299H58.6408V32.6977L57.1532 30.9051H57.8083ZM77.2011 35.0673C77.4169 34.8365 77.625 34.5903 77.8177 34.3441C78.0798 34.0133 78.3264 33.6671 78.5499 33.3055C78.7735 32.9439 78.9816 32.5823 79.1589 32.2207C79.3438 31.8514 79.498 31.4822 79.6367 31.1129L79.7138 30.9128H82.0339L81.8489 31.336C81.6099 31.8976 81.3479 32.4285 81.0781 32.9362C80.8006 33.444 80.5077 33.9287 80.1994 34.3903C79.8911 34.8442 79.5674 35.2904 79.2205 35.7213C78.9045 36.1213 78.5731 36.506 78.2185 36.883V41.3067H76.1759V36.883C75.8291 36.506 75.4977 36.1213 75.1739 35.7213C74.8271 35.2904 74.5034 34.8442 74.195 34.3903C73.8867 33.9364 73.5938 33.4517 73.3164 32.9362C73.0466 32.4285 72.7845 31.8976 72.5456 31.336L72.3606 30.9128H74.6806L74.7577 31.1129C74.8965 31.4822 75.0506 31.8514 75.2356 32.2207C75.4129 32.59 75.621 32.9516 75.8445 33.3055C76.068 33.6594 76.3147 34.0056 76.5767 34.3441C76.7771 34.5903 76.9853 34.8288 77.2011 35.0673ZM94.6669 38.0139C94.6669 38.2832 94.6361 38.5448 94.5744 38.791C94.5127 39.0372 94.4202 39.2757 94.2969 39.4988C94.1736 39.7142 94.0271 39.9142 93.8576 40.1065C93.6957 40.2912 93.503 40.4528 93.2872 40.6066C93.0791 40.7528 92.8479 40.8836 92.6012 40.999C92.3546 41.1144 92.0925 41.2067 91.8073 41.2836C91.5298 41.3606 91.2369 41.4221 90.9286 41.4606C90.6203 41.4991 90.312 41.5221 89.9883 41.5221C89.7956 41.5221 89.5952 41.5068 89.3871 41.4837C89.1867 41.4606 88.9863 41.4221 88.7936 41.376C88.6009 41.3298 88.4082 41.2683 88.2155 41.199C88.0228 41.1298 87.8378 41.0452 87.6528 40.9605C87.4678 40.8682 87.2828 40.7682 87.1133 40.6528C86.9437 40.5451 86.7741 40.422 86.6046 40.2835C86.4427 40.1527 86.2808 40.0065 86.1344 39.8604C85.9879 39.7065 85.8415 39.5526 85.7182 39.3834L85.5486 39.1679L87.0131 37.7985L87.2212 38.0447L87.4293 38.2755L87.6759 38.5294C87.7607 38.614 87.8532 38.6909 87.9457 38.7602C88.0459 38.8371 88.1538 38.9141 88.2694 38.9833C88.3851 39.0525 88.5084 39.1141 88.6317 39.1756C88.7627 39.2372 88.9015 39.291 89.0402 39.3372C89.3177 39.4295 89.6337 39.4757 89.9883 39.4757C90.3274 39.4757 90.6589 39.4449 90.9903 39.3757C91.1522 39.3449 91.3063 39.3064 91.445 39.2526C91.5838 39.2064 91.7148 39.1449 91.8381 39.0833C91.9538 39.0218 92.0617 38.9525 92.1542 38.8756C92.2467 38.7987 92.3314 38.714 92.3931 38.6217C92.4548 38.5371 92.501 38.4448 92.5318 38.3524C92.5627 38.2524 92.5781 38.137 92.5781 38.0139C92.5781 37.7139 92.5164 37.4908 92.3931 37.3523C92.3237 37.2753 92.2467 37.2061 92.1619 37.1523C92.0771 37.0984 91.9769 37.0445 91.8613 37.0061C91.7379 36.9676 91.6069 36.9291 91.4682 36.9061C91.3217 36.883 91.1676 36.8599 91.0134 36.8522C90.682 36.8368 90.3351 36.8291 89.9729 36.8291C89.3639 36.8291 88.8167 36.7753 88.3465 36.6599C87.8609 36.5445 87.4447 36.3752 87.1133 36.1444C86.7587 35.9059 86.4967 35.5982 86.3194 35.2366C86.1421 34.875 86.0573 34.4595 86.0573 33.9902C86.0573 33.7748 86.0804 33.5517 86.1344 33.3363C86.1806 33.1209 86.2577 32.9131 86.3579 32.7054C86.5583 32.2977 86.8281 31.9361 87.1749 31.6283C87.3445 31.4745 87.5372 31.336 87.7453 31.2129C87.9534 31.0898 88.1692 30.9821 88.4082 30.8898C88.8861 30.7051 89.4102 30.6128 89.9729 30.6128C90.7514 30.6128 91.4836 30.7359 92.1619 30.9744C92.5087 31.0975 92.8479 31.2667 93.1793 31.4822C93.503 31.6976 93.819 31.9515 94.1273 32.2515L94.3278 32.4515L93.056 33.9441L92.8247 33.7594C92.7091 33.6671 92.5858 33.5748 92.4548 33.4748C92.3314 33.3901 92.2158 33.3055 92.1079 33.2363C91.8921 33.0978 91.6763 32.9901 91.4605 32.9054C91.3526 32.867 91.2446 32.8285 91.129 32.7977C91.0134 32.767 90.8978 32.7439 90.7822 32.7285C90.6589 32.7131 90.5278 32.6977 90.3968 32.69C90.2658 32.6823 90.1193 32.6746 89.9652 32.6746C89.7185 32.6746 89.495 32.7131 89.2792 32.79C89.1712 32.8285 89.0711 32.8747 88.9786 32.9208C88.8861 32.9747 88.8013 33.0285 88.7242 33.0901C88.6471 33.1516 88.5778 33.2209 88.5161 33.2901C88.4621 33.3594 88.4082 33.4363 88.3619 33.5132C88.3234 33.5902 88.2926 33.6671 88.2694 33.744C88.254 33.821 88.2386 33.8979 88.2386 33.9748C88.2386 34.0287 88.2463 34.0826 88.254 34.1287C88.2617 34.1749 88.2849 34.2287 88.3003 34.2749C88.3157 34.3134 88.3465 34.3518 88.3774 34.3826C88.4159 34.4211 88.4621 34.4672 88.5238 34.5057C88.5855 34.5442 88.6548 34.5826 88.7396 34.6134C88.8321 34.6519 88.94 34.6826 89.0556 34.7057C89.179 34.7365 89.3177 34.7519 89.4719 34.7673C89.626 34.7827 89.811 34.7904 90.0191 34.7904C90.4507 34.7904 90.8515 34.8057 91.2215 34.8442C91.5915 34.875 91.9229 34.9288 92.2081 34.9981C92.501 35.0673 92.7708 35.1519 93.0097 35.2597C93.2564 35.3674 93.4645 35.4905 93.6495 35.6289C93.8345 35.7751 93.9886 35.929 94.1196 36.1059C94.2507 36.2829 94.3509 36.4752 94.428 36.6906C94.4973 36.8907 94.5513 37.0984 94.5821 37.3215C94.6515 37.5446 94.6669 37.7754 94.6669 38.0139ZM101.565 41.299H99.8234V30.9051H101.866L101.851 34.7827C101.935 34.7596 102.02 34.7365 102.105 34.7211C102.221 34.698 102.336 34.6826 102.452 34.6749C102.575 34.6673 102.691 34.6596 102.799 34.6596C102.945 34.6596 103.161 34.6749 103.446 34.7057C104.04 34.775 104.641 34.8442 105.234 34.9058L105.65 34.9365C105.766 34.9442 105.882 34.9442 105.997 34.9442C106.09 34.9442 106.19 34.9365 106.29 34.9288C106.39 34.9211 106.498 34.9058 106.614 34.8904C106.722 34.875 106.822 34.8519 106.915 34.8211L107.022 34.7904V30.8975H109.065V41.2913H107.022V36.8676C106.922 36.8984 106.814 36.9138 106.706 36.9368C106.583 36.9522 106.46 36.9676 106.344 36.9753C106.221 36.983 106.113 36.9907 106.005 36.9907C105.905 36.9907 105.774 36.983 105.627 36.9753C105.489 36.9676 105.342 36.9522 105.188 36.9368C104.587 36.8753 103.993 36.806 103.4 36.7368L103.061 36.706L102.829 36.6983C102.637 36.6983 102.444 36.7137 102.259 36.7522C102.167 36.7676 102.074 36.7907 101.989 36.8214L101.897 36.8522V41.2836H101.565V41.299ZM117.043 39.2449H123.085V41.299H115V30.9051H122.507V32.9593H117.043V35.1443L117.089 35.1289C117.258 35.0673 117.428 35.0288 117.605 35.0058C117.767 34.9827 117.929 34.9673 118.091 34.9596C118.26 34.9519 118.43 34.9442 118.592 34.9442H121.043V36.9984H118.592C118.438 36.9984 118.291 37.0061 118.145 37.0138C117.991 37.0292 117.844 37.0445 117.698 37.0676C117.474 37.0984 117.258 37.1676 117.043 37.26V39.2449ZM133.429 41.299H131.533L127.232 30.9051H129.444L132.589 38.5909L135.757 30.9051H138C136.543 34.3672 135.094 37.837 133.63 41.299H133.429Z" fill="white"/>
<path fill-rule="evenodd" clip-rule="evenodd" d="M56.4441 21.8111H81.5637V0L56.4441 10.6709V21.8111Z" fill="#E95522"/>
<path d="M58.294 48.5138V47.9522H59.6274V49.4909C59.2806 49.8294 58.8412 50.0064 58.294 50.0064C57.7467 50.0064 57.2997 49.8371 56.9605 49.4909C56.6214 49.1524 56.4441 48.7062 56.4441 48.1599C56.4441 47.6137 56.6137 47.1675 56.9605 46.8289C57.2997 46.4904 57.7467 46.3135 58.294 46.3135C58.8412 46.3135 59.2883 46.4827 59.6274 46.8289L59.1881 47.2675C58.9722 47.0444 58.6871 46.9367 58.3248 46.9367C57.9779 46.9367 57.7005 47.0521 57.4846 47.2829C57.2688 47.5137 57.1609 47.806 57.1609 48.1676C57.1609 48.5292 57.2688 48.8293 57.4846 49.0524C57.7005 49.2832 57.9779 49.3986 58.3248 49.3986C58.556 49.3986 58.7564 49.3524 58.9337 49.2601V48.5292H58.294V48.5138ZM64.1133 49.9525L63.3965 48.5138H63.0959V49.9525H62.3791V46.3596H63.5352C63.8898 46.3596 64.175 46.4597 64.3908 46.652C64.6066 46.8443 64.7145 47.1059 64.7145 47.4367C64.7145 47.6675 64.6606 47.8676 64.545 48.0368C64.4293 48.2061 64.2752 48.3292 64.0748 48.4138L64.9072 49.9448H64.1133V49.9525ZM63.8667 47.7906C63.9515 47.6983 63.99 47.5829 63.99 47.4367C63.99 47.2906 63.9515 47.1752 63.8667 47.0828C63.7819 46.9905 63.674 46.952 63.5352 46.952H63.0959V47.9291H63.5352C63.674 47.9214 63.7819 47.8753 63.8667 47.7906ZM67.8208 49.4909C67.4816 49.1524 67.3043 48.7062 67.3043 48.1599C67.3043 47.6137 67.4739 47.1675 67.8208 46.8289C68.1676 46.4904 68.607 46.3135 69.1542 46.3135C69.7092 46.3135 70.1562 46.4827 70.4954 46.8213C70.8345 47.1598 71.0041 47.606 71.0041 48.1599C71.0041 48.7139 70.8345 49.1524 70.4954 49.4986C70.1562 49.8371 69.7092 50.0064 69.1542 50.0064C68.607 49.9987 68.1676 49.8294 67.8208 49.4909ZM68.3449 47.2675C68.1368 47.4983 68.0289 47.7906 68.0289 48.1522C68.0289 48.5138 68.1368 48.8139 68.3449 49.037C68.553 49.2678 68.8228 49.3832 69.1619 49.3832C69.5011 49.3832 69.7708 49.2678 69.9789 49.037C70.1871 48.8062 70.295 48.5138 70.295 48.1522C70.295 47.7906 70.1871 47.4906 69.9789 47.2675C69.7708 47.0367 69.4934 46.9213 69.1619 46.9213C68.8228 46.9213 68.553 47.0367 68.3449 47.2675ZM75.8368 48.6138V46.3596H76.5306V48.6138C76.5306 49.0293 76.3995 49.3601 76.1375 49.614C75.8754 49.8679 75.5362 49.9987 75.1123 49.9987C74.6884 49.9987 74.3492 49.8679 74.0949 49.614C73.8405 49.3601 73.7095 49.0216 73.7095 48.6138V46.3596H74.4032V48.6138C74.4032 48.8447 74.4726 49.0293 74.6036 49.1678C74.7346 49.3063 74.9042 49.3832 75.1123 49.3832C75.3281 49.3832 75.4977 49.314 75.6364 49.1678C75.7675 49.0293 75.8368 48.8447 75.8368 48.6138ZM79.2822 49.9525V46.3596H80.3844C80.739 46.3596 81.0242 46.4597 81.24 46.652C81.4558 46.8443 81.5637 47.1059 81.5637 47.4367C81.5637 47.7676 81.4558 48.0291 81.24 48.2215C81.0242 48.4138 80.739 48.5138 80.3844 48.5138H79.999V49.9525H79.2822ZM80.7159 47.7906C80.8007 47.6983 80.8392 47.5829 80.8392 47.4367C80.8392 47.2906 80.8007 47.1752 80.7159 47.0828C80.6311 46.9905 80.5232 46.952 80.3844 46.952H79.999V47.9291H80.3844C80.5232 47.9214 80.6311 47.8753 80.7159 47.7906Z" fill="#E64D01"/>
</g>
<defs>
<clipPath id="clip0">
<rect width="138" height="50" fill="white"/>
</clipPath>
</defs>
</svg>
