<svg width="14" height="24" viewBox="0 0 14 24" fill="none" xmlns="http://www.w3.org/2000/svg">
<path d="M12.4375 0.375H1.5625C1.21452 0.375385 0.880905 0.513789 0.634847 0.759847C0.388789 1.00591 0.250385 1.33952 0.25 1.6875V22.3125C0.250385 22.6605 0.388789 22.9941 0.634847 23.2402C0.880905 23.4862 1.21452 23.6246 1.5625 23.625H12.4375C12.7855 23.6246 13.1191 23.4862 13.3652 23.2402C13.6112 22.9941 13.7496 22.6605 13.75 22.3125V1.6875C13.7496 1.33952 13.6112 1.00591 13.3652 0.759847C13.1191 0.513789 12.7855 0.375385 12.4375 0.375ZM8.76953 1.125L8.58203 1.875H5.41797L5.23047 1.125H8.76953ZM13 22.3125C12.9999 22.4616 12.9406 22.6046 12.8351 22.7101C12.7296 22.8156 12.5866 22.8749 12.4375 22.875H1.5625C1.41335 22.8749 1.27035 22.8156 1.16489 22.7101C1.05943 22.6046 1.00012 22.4616 1 22.3125V1.6875C1.00012 1.53835 1.05943 1.39535 1.16489 1.28989C1.27035 1.18443 1.41335 1.12512 1.5625 1.125H4.45703L4.76125 2.34094C4.78153 2.42206 4.82834 2.49409 4.89425 2.54556C4.96016 2.59702 5.04138 2.62499 5.125 2.625H8.875C8.95862 2.62499 9.03984 2.59702 9.10575 2.54556C9.17166 2.49409 9.21847 2.42206 9.23875 2.34094L9.54297 1.125H12.4375C12.5866 1.12512 12.7296 1.18443 12.8351 1.28989C12.9406 1.39535 12.9999 1.53835 13 1.6875V22.3125Z" fill="white" stroke="white" stroke-width="0.3"/>
<path d="M7.8 20H6.2C6.14696 20 6.09609 20.0211 6.05858 20.0586C6.02107 20.0961 6 20.147 6 20.2V20.8C6 20.853 6.02107 20.9039 6.05858 20.9414C6.09609 20.9789 6.14696 21 6.2 21H7.8C7.85304 21 7.90391 20.9789 7.94142 20.9414C7.97893 20.9039 8 20.853 8 20.8V20.2C8 20.147 7.97893 20.0961 7.94142 20.0586C7.90391 20.0211 7.85304 20 7.8 20Z" fill="white"/>
</svg>
