<svg width="48" height="50" viewBox="0 0 48 50" fill="none" xmlns="http://www.w3.org/2000/svg">
<path d="M46.098 47.0703H42.2334V1.46484C42.2334 0.655859 41.5775 0 40.7686 0H7.23115C6.42217 0 5.76631 0.655859 5.76631 1.46484V47.0703H1.90186C1.09287 47.0703 0.437012 47.7262 0.437012 48.5352C0.437012 49.3441 1.09287 50 1.90186 50H46.098C46.907 50 47.5629 49.3441 47.5629 48.5352C47.5629 47.7262 46.907 47.0703 46.098 47.0703ZM19.0066 47.0703V37.0839H28.9931V47.0703H19.0066ZM31.9228 47.0703V35.619C31.9228 34.8101 31.2669 34.1542 30.4579 34.1542H17.5418C16.7328 34.1542 16.077 34.8101 16.077 35.619V47.0703H8.696V2.92969H39.3037V47.0703H31.9228Z" fill="#E95522"/>
<path d="M20.8504 6.47546H13.6719C12.8629 6.47546 12.207 7.13132 12.207 7.94031V15.1188C12.207 15.9278 12.8629 16.5837 13.6719 16.5837H20.8504C21.6594 16.5837 22.3152 15.9278 22.3152 15.1188V7.94031C22.3152 7.13132 21.6594 6.47546 20.8504 6.47546ZM19.3855 13.654H15.1367V9.40515H19.3855V13.654Z" fill="#E95522"/>
<path d="M34.3282 6.47546H27.1497C26.3407 6.47546 25.6848 7.13132 25.6848 7.94031V15.1188C25.6848 15.9278 26.3407 16.5837 27.1497 16.5837H34.3282C35.1372 16.5837 35.793 15.9278 35.793 15.1188V7.94031C35.793 7.13132 35.1372 6.47546 34.3282 6.47546ZM32.8633 13.654H28.6145V9.40515H32.8633V13.654Z" fill="#E95522"/>
<path d="M20.8504 20.1127H13.6719C12.8629 20.1127 12.207 20.7686 12.207 21.5775V28.7561C12.207 29.5651 12.8629 30.2209 13.6719 30.2209H20.8504C21.6594 30.2209 22.3152 29.5651 22.3152 28.7561V21.5775C22.3152 20.7686 21.6594 20.1127 20.8504 20.1127ZM19.3855 27.2912H15.1367V23.0424H19.3855V27.2912Z" fill="#E95522"/>
<path d="M34.3282 20.1127H27.1497C26.3407 20.1127 25.6848 20.7686 25.6848 21.5775V28.7561C25.6848 29.5651 26.3407 30.2209 27.1497 30.2209H34.3282C35.1372 30.2209 35.793 29.5651 35.793 28.7561V21.5775C35.793 20.7686 35.1372 20.1127 34.3282 20.1127ZM32.8633 27.2912H28.6145V23.0424H32.8633V27.2912Z" fill="#E95522"/>
</svg>
