<svg width="50" height="50" viewBox="0 0 50 50" fill="none" xmlns="http://www.w3.org/2000/svg">
<path d="M48.4375 0H1.5625C0.7 0 0 0.7 0 1.5625V48.4375C0 49.3 0.7 50 1.5625 50H48.4375C49.3 50 50 49.3 50 48.4375V1.5625C50 0.7 49.3 0 48.4375 0ZM46.875 46.875H3.125V3.125H46.875V46.875Z" fill="#E95522"/>
<path d="M42.1875 6.25H7.8125C6.95 6.25 6.25 6.95 6.25 7.8125V42.1875C6.25 43.05 6.95 43.75 7.8125 43.75H42.1875C43.05 43.75 43.75 43.05 43.75 42.1875V7.8125C43.75 6.95 43.05 6.25 42.1875 6.25ZM23.4375 40.625H9.375V26.5625H23.4375V40.625ZM23.4375 23.4375H9.375V9.375H23.4375V23.4375ZM40.625 40.625H26.5625V26.5625H40.625V40.625ZM40.625 23.4375H26.5625V9.375H40.625V23.4375Z" fill="#E95522"/>
</svg>
