<svg width="50" height="50" viewBox="0 0 50 50" fill="none" xmlns="http://www.w3.org/2000/svg">
<path d="M45.2886 14.2308C44.8463 13.9493 44.2945 13.9236 43.8291 14.1631L25.8291 23.4358C25.321 23.6978 25 24.2329 25 24.8182V46.4546C25 46.9901 25.2693 47.4877 25.7114 47.7693C25.9523 47.9227 26.2257 48 26.5 48C26.7293 48 26.959 47.9459 27.1709 47.8368L45.1709 38.5641C45.679 38.3023 46 37.7672 46 37.1818V15.5455C46 15.0099 45.7307 14.5124 45.2886 14.2308ZM43 36.2268L28 43.954V25.7735L43 18.0463V36.2268Z" fill="#E95522"/>
<path d="M44.9991 11.1918C44.9791 10.5958 44.6053 10.0666 44.0447 9.84028L24.8909 2.11297C24.504 1.9571 24.0692 1.96259 23.6863 2.12907L5.91711 9.85638C5.3775 10.091 5.02173 10.6088 5.00096 11.1893C4.98019 11.7698 5.29846 12.3109 5.81999 12.5821L23.5892 21.8246C23.8138 21.9413 24.0605 22 24.3076 22C24.5392 22 24.7709 21.9487 24.9846 21.8455L44.1384 12.603C44.6826 12.3407 45.0195 11.7882 44.9991 11.1918ZM24.334 18.785L10.0673 11.3643L24.3305 5.16166L39.7093 11.366L24.334 18.785Z" fill="#E95522"/>
<path d="M22.2384 23.4612L6.16143 14.1884C5.70872 13.9276 5.15955 13.9381 4.71542 14.2165C4.27185 14.4948 4 15 4 15.5454V37.1818C4 37.7474 4.29212 38.2677 4.76164 38.5385L20.8386 47.8113C21.0569 47.937 21.2979 48 21.5385 48C21.7968 48 22.0548 47.9276 22.2846 47.7834C22.7282 47.5051 23 46.9999 23 46.4545V24.8181C23 24.2525 22.7079 23.7322 22.2384 23.4612ZM8.1895 36.9948L20.0769 27.853V32.0397L11.3004 38.7891L8.1895 36.9948ZM6.92308 29.9606L15.6998 23.2108L18.8105 25.0051L6.92308 34.1469V29.9606ZM12.86 21.573L6.92308 26.1387V18.1487L12.86 21.573ZM14.1402 40.4269L20.0769 35.8614V43.8512L14.1402 40.4269Z" fill="#E95522"/>
</svg>
