<svg width="20" height="20" viewBox="0 0 20 20" fill="none" xmlns="http://www.w3.org/2000/svg">
<path d="M18.3845 5.7832C18.2849 5.41218 18.0896 5.07384 17.8181 4.80202C17.5466 4.53021 17.2085 4.33446 16.8376 4.23438C15.4724 3.86719 9.99976 3.86719 9.99976 3.86719C9.99976 3.86719 4.5271 3.86719 3.16187 4.23242C2.79081 4.33219 2.45254 4.52782 2.18102 4.79969C1.9095 5.07155 1.71429 5.41007 1.61499 5.78125C1.24976 7.14844 1.24976 10 1.24976 10C1.24976 10 1.24976 12.8516 1.61499 14.2168C1.81616 14.9707 2.40991 15.5645 3.16187 15.7656C4.5271 16.1328 9.99976 16.1328 9.99976 16.1328C9.99976 16.1328 15.4724 16.1328 16.8376 15.7656C17.5916 15.5645 18.1833 14.9707 18.3845 14.2168C18.7498 12.8516 18.7498 10 18.7498 10C18.7498 10 18.7498 7.14844 18.3845 5.7832ZM8.26147 12.6172V7.38281L12.7927 9.98047L8.26147 12.6172Z" fill="#E95522"/>
</svg>
