<svg width="20" height="20" viewBox="0 0 20 20" fill="none" xmlns="http://www.w3.org/2000/svg">
<path d="M9.99985 7.39658C8.56626 7.39658 7.39633 8.5665 7.39633 10.0001C7.39633 11.4337 8.56626 12.6036 9.99985 12.6036C11.4334 12.6036 12.6034 11.4337 12.6034 10.0001C12.6034 8.5665 11.4334 7.39658 9.99985 7.39658ZM17.8084 10.0001C17.8084 8.92197 17.8182 7.85361 17.7577 6.77744C17.6971 5.52744 17.412 4.41806 16.4979 3.504C15.5819 2.58798 14.4745 2.30478 13.2245 2.24423C12.1463 2.18369 11.078 2.19345 10.0018 2.19345C8.92368 2.19345 7.85532 2.18369 6.77915 2.24423C5.52915 2.30478 4.41977 2.58994 3.50571 3.504C2.58969 4.42001 2.30649 5.52744 2.24594 6.77744C2.1854 7.85556 2.19516 8.92392 2.19516 10.0001C2.19516 11.0763 2.1854 12.1466 2.24594 13.2227C2.30649 14.4727 2.59165 15.5821 3.50571 16.4962C4.42172 17.4122 5.52915 17.6954 6.77915 17.756C7.85727 17.8165 8.92563 17.8067 10.0018 17.8067C11.0799 17.8067 12.1483 17.8165 13.2245 17.756C14.4745 17.6954 15.5838 17.4102 16.4979 16.4962C17.4139 15.5802 17.6971 14.4727 17.7577 13.2227C17.8202 12.1466 17.8084 11.0782 17.8084 10.0001ZM9.99985 14.006C7.78305 14.006 5.99399 12.2169 5.99399 10.0001C5.99399 7.7833 7.78305 5.99423 9.99985 5.99423C12.2166 5.99423 14.0057 7.7833 14.0057 10.0001C14.0057 12.2169 12.2166 14.006 9.99985 14.006ZM14.1698 6.76572C13.6522 6.76572 13.2342 6.34775 13.2342 5.83017C13.2342 5.31259 13.6522 4.89462 14.1698 4.89462C14.6874 4.89462 15.1053 5.31259 15.1053 5.83017C15.1055 5.95307 15.0814 6.0748 15.0344 6.18837C14.9875 6.30195 14.9186 6.40514 14.8316 6.49205C14.7447 6.57895 14.6415 6.64786 14.528 6.69482C14.4144 6.74178 14.2927 6.76587 14.1698 6.76572Z" fill="#E95522"/>
</svg>
